ffmpeg started on 2026-01-18 at 19:44:21
Report written to "C:\Dev\OSPanel\domains\Java-AT\modules\ffmpeg\FFMetrics\reports\psnr_report-6.txt"
Log level: 32
Command line:
ffmpeg -hide_banner -nostdin -r 24000/1001 -i "F:\\Convert\\files\\[DC] Make Heroine ga Oosugiru - 07_Telegram_HEVC(148).mkv" -r 24000/1001 -i "F:\\Convert\\files\\[DC] Make Heroine ga Oosugiru - 07_Telegram.mp4" -lavfi "[0:v]settb=AVTB,setpts=PTS-STARTPTS,format=pix_fmts=yuv420p10le,fps=24000/1001,scale=1920:1080:flags=lanczos:param0=3:out_range=limited:out_color_matrix=bt709:out_chroma_loc=left,setsar=1/1,setdar=(1920/1080)*(1/1),colorspace=format=yuv420p10:range=tv:primaries=bt709:trc=bt709:space=bt709:fast=0[main];[1:v]settb=AVTB,setpts=PTS-STARTPTS,format=pix_fmts=yuv420p,fps=24000/1001,scale=1920:1080:flags=lanczos:param0=3:out_range=limited:out_color_matrix=bt709:out_chroma_loc=left,setsar=1.000,setdar=1.778,colorspace=format=yuv420p:range=tv:primaries=bt709:trc=bt709:space=bt709:fast=0[ref];[main][ref]psnr=eof_action=endall:stats_file='C\\:/Dev/OSPanel/domains/Java-AT/modules/ffmpeg/FFMetrics/logs/psnr_logfile-6.txt'" -f null -
Input #0, matroska,webm, from 'F:\Convert\files\[DC] Make Heroine ga Oosugiru - 07_Telegram_HEVC(148).mkv':
  Metadata:
    COMPATIBLE_BRANDS: isomiso2avc1mp41
    MAJOR_BRAND     : isom
    MINOR_VERSION   : 512
    ENCODER         : Lavf61.7.100
  Duration: 00:24:06.79, start: -0.021000, bitrate: 976 kb/s
  Stream #0:0: Video: hevc (Main 10), yuv420p10le(tv, bt709, progressive), 1920x1080 [SAR 1:1 DAR 16:9], 23.98 fps, 23.98 tbr, 1k tbn (default)
      Metadata:
        HANDLER_NAME    : VideoHandler
        VENDOR_ID       : [0][0][0][0]
        ENCODER         : Lavc61.19.100 libx265
        BPS             : 779754
        DURATION        : 00:24:06.569708333
        NUMBER_OF_FRAMES: 34683
        NUMBER_OF_BYTES : 140995998
        _STATISTICS_WRITING_APP: mkvpropedit v94.0 ('Initiate') 64-bit
        _STATISTICS_WRITING_DATE_UTC: 2026-01-17 15:16:55
        _STATISTICS_TAGS: BPS DURATION NUMBER_OF_FRAMES NUMBER_OF_BYTES
  Stream #0:1: Audio: aac (LC), 48000 Hz, stereo, fltp (default)
      Metadata:
        HANDLER_NAME    : SoundHandler
        VENDOR_ID       : [0][0][0][0]
        ENCODER         : Lavc61.19.100 aac
        BPS             : 193194
        DURATION        : 00:24:06.784000000
        NUMBER_OF_FRAMES: 67819
        NUMBER_OF_BYTES : 34938755
        _STATISTICS_WRITING_APP: mkvpropedit v94.0 ('Initiate') 64-bit
        _STATISTICS_WRITING_DATE_UTC: 2026-01-17 15:16:55
        _STATISTICS_TAGS: BPS DURATION NUMBER_OF_FRAMES NUMBER_OF_BYTES
Input #1, mov,mp4,m4a,3gp,3g2,mj2, from 'F:\Convert\files\[DC] Make Heroine ga Oosugiru - 07_Telegram.mp4':
  Metadata:
    major_brand     : isom
    minor_version   : 512
    compatible_brands: isomiso2avc1mp41
    encoder         : Lavf60.16.100
  Duration: 00:24:06.74, start: 0.000000, bitrate: 3764 kb/s
  Stream #1:0[0x1](und): Video: h264 (High) (avc1 / 0x31637661), yuv420p(tv, bt709, progressive), 1920x1080 [SAR 1:1 DAR 16:9], 3616 kb/s, 23.98 fps, 23.98 tbr, 24k tbn (default)
      Metadata:
        handler_name    : VideoHandler
        vendor_id       : [0][0][0][0]
        encoder         : Lavc60.31.102 h264_qsv
  Stream #1:1[0x2](und): Audio: aac (HE-AACv2) (mp4a / 0x6134706D), 48000 Hz, stereo, fltp, 144 kb/s (default)
      Metadata:
        handler_name    : SoundHandler
        vendor_id       : [0][0][0][0]
Stream mapping:
  Stream #0:0 (hevc) -> settb:default
  Stream #1:0 (h264) -> settb:default
  psnr:default -> Stream #0:0 (wrapped_avframe)
  Stream #0:1 -> #0:1 (aac (native) -> pcm_s16le (native))
Output #0, null, to 'pipe:':
  Metadata:
    COMPATIBLE_BRANDS: isomiso2avc1mp41
    MAJOR_BRAND     : isom
    MINOR_VERSION   : 512
    encoder         : Lavf61.7.100
  Stream #0:0: Video: wrapped_avframe, yuv420p10le(tv, bt709, progressive), 1920x1080 [SAR 1:1 DAR 16:9], q=2-31, 200 kb/s, 23.98 fps, 23.98 tbn
      Metadata:
        encoder         : Lavc61.19.100 wrapped_avframe
  Stream #0:1: Audio: pcm_s16le, 48000 Hz, stereo, s16, 1536 kb/s (default)
      Metadata:
        HANDLER_NAME    : SoundHandler
        VENDOR_ID       : [0][0][0][0]
        _STATISTICS_TAGS: BPS DURATION NUMBER_OF_FRAMES NUMBER_OF_BYTES
        BPS             : 193194
        DURATION        : 00:24:06.784000000
        NUMBER_OF_FRAMES: 67819
        NUMBER_OF_BYTES : 34938755
        _STATISTICS_WRITING_APP: mkvpropedit v94.0 ('Initiate') 64-bit
        _STATISTICS_WRITING_DATE_UTC: 2026-01-17 15:16:55
        encoder         : Lavc61.19.100 pcm_s16le
frame=  129 fps=0.0 q=-0.0 size=N/A time=00:00:05.38 bitrate=N/A speed=10.2x    frame=  329 fps=316 q=-0.0 size=N/A time=00:00:13.72 bitrate=N/A speed=13.2x    frame=  530 fps=341 q=-0.0 size=N/A time=00:00:22.10 bitrate=N/A speed=14.2x    frame=  733 fps=355 q=-0.0 size=N/A time=00:00:30.57 bitrate=N/A speed=14.8x    frame=  915 fps=353 q=-0.0 size=N/A time=00:00:38.16 bitrate=N/A speed=14.7x    frame= 1076 fps=345 q=-0.0 size=N/A time=00:00:44.87 bitrate=N/A speed=14.4x    frame= 1231 fps=339 q=-0.0 size=N/A time=00:00:51.34 bitrate=N/A speed=14.1x    frame= 1395 fps=337 q=-0.0 size=N/A time=00:00:58.18 bitrate=N/A speed=  14x    frame= 1547 fps=331 q=-0.0 size=N/A time=00:01:04.52 bitrate=N/A speed=13.8x    frame= 1699 fps=328 q=-0.0 size=N/A time=00:01:10.86 bitrate=N/A speed=13.7x    frame= 1868 fps=328 q=-0.0 size=N/A time=00:01:17.91 bitrate=N/A speed=13.7x    frame= 2044 fps=329 q=-0.0 size=N/A time=00:01:25.25 bitrate=N/A speed=13.7x    frame= 2156 fps=320 q=-0.0 size=N/A time=00:01:29.92 bitrate=N/A speed=13.4x    frame= 2317 fps=320 q=-0.0 size=N/A time=00:01:36.63 bitrate=N/A speed=13.4x    frame= 2460 fps=317 q=-0.0 size=N/A time=00:01:42.60 bitrate=N/A speed=13.2x    frame= 2605 fps=315 q=-0.0 size=N/A time=00:01:48.65 bitrate=N/A speed=13.1x    frame= 2785 fps=317 q=-0.0 size=N/A time=00:01:56.15 bitrate=N/A speed=13.2x    frame= 2966 fps=319 q=-0.0 size=N/A time=00:02:03.70 bitrate=N/A speed=13.3x    frame= 3158 fps=322 q=-0.0 size=N/A time=00:02:11.71 bitrate=N/A speed=13.4x    frame= 3368 fps=326 q=-0.0 size=N/A time=00:02:20.47 bitrate=N/A speed=13.6x    frame= 3576 fps=329 q=-0.0 size=N/A time=00:02:29.14 bitrate=N/A speed=13.7x    frame= 3778 fps=332 q=-0.0 size=N/A time=00:02:37.57 bitrate=N/A speed=13.9x    frame= 3984 fps=335 q=-0.0 size=N/A time=00:02:46.16 bitrate=N/A speed=  14x    frame= 4186 fps=338 q=-0.0 size=N/A time=00:02:54.59 bitrate=N/A speed=14.1x    frame= 4398 fps=340 q=-0.0 size=N/A time=00:03:03.43 bitrate=N/A speed=14.2x    frame= 4596 fps=342 q=-0.0 size=N/A time=00:03:11.69 bitrate=N/A speed=14.3x    frame= 4803 fps=345 q=-0.0 size=N/A time=00:03:20.32 bitrate=N/A speed=14.4x    frame= 5015 fps=347 q=-0.0 size=N/A time=00:03:29.16 bitrate=N/A speed=14.5x    frame= 5220 fps=348 q=-0.0 size=N/A time=00:03:37.71 bitrate=N/A speed=14.5x    frame= 5421 fps=350 q=-0.0 size=N/A time=00:03:46.10 bitrate=N/A speed=14.6x    frame= 5626 fps=351 q=-0.0 size=N/A time=00:03:54.65 bitrate=N/A speed=14.6x    frame= 5832 fps=353 q=-0.0 size=N/A time=00:04:03.24 bitrate=N/A speed=14.7x    frame= 6032 fps=354 q=-0.0 size=N/A time=00:04:11.58 bitrate=N/A speed=14.7x    frame= 6233 fps=355 q=-0.0 size=N/A time=00:04:19.96 bitrate=N/A speed=14.8x    frame= 6432 fps=356 q=-0.0 size=N/A time=00:04:28.26 bitrate=N/A speed=14.8x    frame= 6637 fps=357 q=-0.0 size=N/A time=00:04:36.81 bitrate=N/A speed=14.9x    frame= 6843 fps=358 q=-0.0 size=N/A time=00:04:45.41 bitrate=N/A speed=14.9x    frame= 7044 fps=359 q=-0.0 size=N/A time=00:04:53.79 bitrate=N/A speed=  15x    frame= 7243 fps=359 q=-0.0 size=N/A time=00:05:02.09 bitrate=N/A speed=  15x    frame= 7435 fps=360 q=-0.0 size=N/A time=00:05:10.10 bitrate=N/A speed=  15x    frame= 7624 fps=360 q=-0.0 size=N/A time=00:05:17.98 bitrate=N/A speed=  15x    frame= 7824 fps=361 q=-0.0 size=N/A time=00:05:26.32 bitrate=N/A speed=  15x    frame= 8021 fps=361 q=-0.0 size=N/A time=00:05:34.54 bitrate=N/A speed=15.1x    frame= 8223 fps=362 q=-0.0 size=N/A time=00:05:42.96 bitrate=N/A speed=15.1x    frame= 8418 fps=362 q=-0.0 size=N/A time=00:05:51.10 bitrate=N/A speed=15.1x    frame= 8623 fps=363 q=-0.0 size=N/A time=00:05:59.65 bitrate=N/A speed=15.1x    frame= 8826 fps=364 q=-0.0 size=N/A time=00:06:08.11 bitrate=N/A speed=15.2x    frame= 9023 fps=364 q=-0.0 size=N/A time=00:06:16.33 bitrate=N/A speed=15.2x    frame= 9223 fps=365 q=-0.0 size=N/A time=00:06:24.67 bitrate=N/A speed=15.2x    frame= 9433 fps=365 q=-0.0 size=N/A time=00:06:33.43 bitrate=N/A speed=15.2x    frame= 9635 fps=366 q=-0.0 size=N/A time=00:06:41.85 bitrate=N/A speed=15.3x    frame= 9834 fps=366 q=-0.0 size=N/A time=00:06:50.15 bitrate=N/A speed=15.3x    frame=10026 fps=366 q=-0.0 size=N/A time=00:06:58.16 bitrate=N/A speed=15.3x    frame=10228 fps=367 q=-0.0 size=N/A time=00:07:06.59 bitrate=N/A speed=15.3x    frame=10426 fps=367 q=-0.0 size=N/A time=00:07:14.85 bitrate=N/A speed=15.3x    frame=10624 fps=367 q=-0.0 size=N/A time=00:07:23.10 bitrate=N/A speed=15.3x    frame=10813 fps=367 q=-0.0 size=N/A time=00:07:30.99 bitrate=N/A speed=15.3x    frame=11018 fps=368 q=-0.0 size=N/A time=00:07:39.54 bitrate=N/A speed=15.3x    frame=11222 fps=368 q=-0.0 size=N/A time=00:07:48.05 bitrate=N/A speed=15.4x    frame=11419 fps=369 q=-0.0 size=N/A time=00:07:56.26 bitrate=N/A speed=15.4x    frame=11618 fps=369 q=-0.0 size=N/A time=00:08:04.56 bitrate=N/A speed=15.4x    frame=11829 fps=369 q=-0.0 size=N/A time=00:08:13.36 bitrate=N/A speed=15.4x    frame=12027 fps=370 q=-0.0 size=N/A time=00:08:21.62 bitrate=N/A speed=15.4x    frame=12232 fps=370 q=-0.0 size=N/A time=00:08:30.17 bitrate=N/A speed=15.4x    frame=12430 fps=370 q=-0.0 size=N/A time=00:08:38.43 bitrate=N/A speed=15.5x    frame=12627 fps=371 q=-0.0 size=N/A time=00:08:46.65 bitrate=N/A speed=15.5x    frame=12831 fps=371 q=-0.0 size=N/A time=00:08:55.15 bitrate=N/A speed=15.5x    frame=13027 fps=371 q=-0.0 size=N/A time=00:09:03.33 bitrate=N/A speed=15.5x    frame=13224 fps=371 q=-0.0 size=N/A time=00:09:11.55 bitrate=N/A speed=15.5x    frame=13429 fps=372 q=-0.0 size=N/A time=00:09:20.10 bitrate=N/A speed=15.5x    frame=13628 fps=372 q=-0.0 size=N/A time=00:09:28.40 bitrate=N/A speed=15.5x    frame=13820 fps=372 q=-0.0 size=N/A time=00:09:36.40 bitrate=N/A speed=15.5x    frame=14027 fps=372 q=-0.0 size=N/A time=00:09:45.04 bitrate=N/A speed=15.5x    frame=14210 fps=372 q=-0.0 size=N/A time=00:09:52.67 bitrate=N/A speed=15.5x    frame=14412 fps=372 q=-0.0 size=N/A time=00:10:01.10 bitrate=N/A speed=15.5x    frame=14606 fps=372 q=-0.0 size=N/A time=00:10:09.19 bitrate=N/A speed=15.5x    frame=14805 fps=372 q=-0.0 size=N/A time=00:10:17.49 bitrate=N/A speed=15.5x    frame=15003 fps=373 q=-0.0 size=N/A time=00:10:25.75 bitrate=N/A speed=15.5x    frame=15166 fps=372 q=-0.0 size=N/A time=00:10:32.54 bitrate=N/A speed=15.5x    frame=15365 fps=372 q=-0.0 size=N/A time=00:10:40.84 bitrate=N/A speed=15.5x    frame=15569 fps=372 q=-0.0 size=N/A time=00:10:49.35 bitrate=N/A speed=15.5x    frame=15770 fps=373 q=-0.0 size=N/A time=00:10:57.74 bitrate=N/A speed=15.5x    frame=15973 fps=373 q=-0.0 size=N/A time=00:11:06.20 bitrate=N/A speed=15.5x    frame=16182 fps=373 q=-0.0 size=N/A time=00:11:14.92 bitrate=N/A speed=15.6x    frame=16381 fps=373 q=-0.0 size=N/A time=00:11:23.22 bitrate=N/A speed=15.6x    frame=16578 fps=373 q=-0.0 size=N/A time=00:11:31.44 bitrate=N/A speed=15.6x    frame=16777 fps=373 q=-0.0 size=N/A time=00:11:39.74 bitrate=N/A speed=15.6x    frame=16990 fps=374 q=-0.0 size=N/A time=00:11:48.62 bitrate=N/A speed=15.6x    frame=17192 fps=374 q=-0.0 size=N/A time=00:11:57.04 bitrate=N/A speed=15.6x    frame=17387 fps=374 q=-0.0 size=N/A time=00:12:05.18 bitrate=N/A speed=15.6x    frame=17584 fps=374 q=-0.0 size=N/A time=00:12:13.39 bitrate=N/A speed=15.6x    frame=17779 fps=374 q=-0.0 size=N/A time=00:12:21.53 bitrate=N/A speed=15.6x    frame=17991 fps=375 q=-0.0 size=N/A time=00:12:30.37 bitrate=N/A speed=15.6x    frame=18187 fps=375 q=-0.0 size=N/A time=00:12:38.54 bitrate=N/A speed=15.6x    frame=18374 fps=375 q=-0.0 size=N/A time=00:12:46.34 bitrate=N/A speed=15.6x    frame=18580 fps=375 q=-0.0 size=N/A time=00:12:54.94 bitrate=N/A speed=15.6x    frame=18782 fps=375 q=-0.0 size=N/A time=00:13:03.36 bitrate=N/A speed=15.6x    frame=18995 fps=375 q=-0.0 size=N/A time=00:13:12.24 bitrate=N/A speed=15.7x    frame=19193 fps=375 q=-0.0 size=N/A time=00:13:20.50 bitrate=N/A speed=15.7x    frame=19394 fps=376 q=-0.0 size=N/A time=00:13:28.89 bitrate=N/A speed=15.7x    frame=19592 fps=376 q=-0.0 size=N/A time=00:13:37.14 bitrate=N/A speed=15.7x    frame=19793 fps=376 q=-0.0 size=N/A time=00:13:45.53 bitrate=N/A speed=15.7x    frame=19989 fps=376 q=-0.0 size=N/A time=00:13:53.70 bitrate=N/A speed=15.7x    frame=20195 fps=376 q=-0.0 size=N/A time=00:14:02.29 bitrate=N/A speed=15.7x    frame=20398 fps=376 q=-0.0 size=N/A time=00:14:10.76 bitrate=N/A speed=15.7x    frame=20591 fps=376 q=-0.0 size=N/A time=00:14:18.81 bitrate=N/A speed=15.7x    frame=20791 fps=376 q=-0.0 size=N/A time=00:14:27.15 bitrate=N/A speed=15.7x    frame=20987 fps=376 q=-0.0 size=N/A time=00:14:35.33 bitrate=N/A speed=15.7x    frame=21178 fps=376 q=-0.0 size=N/A time=00:14:43.29 bitrate=N/A speed=15.7x    frame=21393 fps=377 q=-0.0 size=N/A time=00:14:52.26 bitrate=N/A speed=15.7x    frame=21592 fps=377 q=-0.0 size=N/A time=00:15:00.56 bitrate=N/A speed=15.7x    frame=21795 fps=377 q=-0.0 size=N/A time=00:15:09.03 bitrate=N/A speed=15.7x    frame=21993 fps=377 q=-0.0 size=N/A time=00:15:17.29 bitrate=N/A speed=15.7x    frame=22200 fps=377 q=-0.0 size=N/A time=00:15:25.92 bitrate=N/A speed=15.7x    frame=22396 fps=377 q=-0.0 size=N/A time=00:15:34.09 bitrate=N/A speed=15.7x    frame=22607 fps=378 q=-0.0 size=N/A time=00:15:42.90 bitrate=N/A speed=15.7x    frame=22800 fps=378 q=-0.0 size=N/A time=00:15:50.95 bitrate=N/A speed=15.7x    frame=23008 fps=378 q=-0.0 size=N/A time=00:15:59.62 bitrate=N/A speed=15.8x    frame=23218 fps=378 q=-0.0 size=N/A time=00:16:08.38 bitrate=N/A speed=15.8x    frame=23416 fps=378 q=-0.0 size=N/A time=00:16:16.64 bitrate=N/A speed=15.8x    frame=23615 fps=378 q=-0.0 size=N/A time=00:16:24.94 bitrate=N/A speed=15.8x    frame=23821 fps=378 q=-0.0 size=N/A time=00:16:33.53 bitrate=N/A speed=15.8x    frame=24025 fps=378 q=-0.0 size=N/A time=00:16:42.04 bitrate=N/A speed=15.8x    frame=24228 fps=378 q=-0.0 size=N/A time=00:16:50.50 bitrate=N/A speed=15.8x    frame=24425 fps=378 q=-0.0 size=N/A time=00:16:58.72 bitrate=N/A speed=15.8x    frame=24641 fps=379 q=-0.0 size=N/A time=00:17:07.73 bitrate=N/A speed=15.8x    frame=24845 fps=379 q=-0.0 size=N/A time=00:17:16.24 bitrate=N/A speed=15.8x    frame=25048 fps=379 q=-0.0 size=N/A time=00:17:24.71 bitrate=N/A speed=15.8x    frame=25250 fps=379 q=-0.0 size=N/A time=00:17:33.13 bitrate=N/A speed=15.8x    frame=25452 fps=379 q=-0.0 size=N/A time=00:17:41.56 bitrate=N/A speed=15.8x    frame=25656 fps=379 q=-0.0 size=N/A time=00:17:50.06 bitrate=N/A speed=15.8x    frame=25862 fps=379 q=-0.0 size=N/A time=00:17:58.66 bitrate=N/A speed=15.8x    frame=26062 fps=379 q=-0.0 size=N/A time=00:18:07.00 bitrate=N/A speed=15.8x    frame=26258 fps=380 q=-0.0 size=N/A time=00:18:15.17 bitrate=N/A speed=15.8x    frame=26466 fps=380 q=-0.0 size=N/A time=00:18:23.85 bitrate=N/A speed=15.8x    frame=26674 fps=380 q=-0.0 size=N/A time=00:18:32.52 bitrate=N/A speed=15.8x    frame=26871 fps=380 q=-0.0 size=N/A time=00:18:40.74 bitrate=N/A speed=15.8x    frame=27060 fps=380 q=-0.0 size=N/A time=00:18:48.62 bitrate=N/A speed=15.8x    frame=27247 fps=380 q=-0.0 size=N/A time=00:18:56.42 bitrate=N/A speed=15.8x    frame=27437 fps=380 q=-0.0 size=N/A time=00:19:04.35 bitrate=N/A speed=15.8x    frame=27630 fps=380 q=-0.0 size=N/A time=00:19:12.40 bitrate=N/A speed=15.8x    frame=27832 fps=380 q=-0.0 size=N/A time=00:19:20.82 bitrate=N/A speed=15.8x    frame=28020 fps=379 q=-0.0 size=N/A time=00:19:28.66 bitrate=N/A speed=15.8x    frame=28215 fps=380 q=-0.0 size=N/A time=00:19:36.80 bitrate=N/A speed=15.8x    frame=28413 fps=380 q=-0.0 size=N/A time=00:19:45.05 bitrate=N/A speed=15.8x    frame=28610 fps=380 q=-0.0 size=N/A time=00:19:53.27 bitrate=N/A speed=15.8x    frame=28793 fps=379 q=-0.0 size=N/A time=00:20:00.90 bitrate=N/A speed=15.8x    frame=28967 fps=379 q=-0.0 size=N/A time=00:20:08.16 bitrate=N/A speed=15.8x    frame=29150 fps=379 q=-0.0 size=N/A time=00:20:15.79 bitrate=N/A speed=15.8x    frame=29345 fps=379 q=-0.0 size=N/A time=00:20:23.93 bitrate=N/A speed=15.8x    frame=29528 fps=379 q=-0.0 size=N/A time=00:20:31.56 bitrate=N/A speed=15.8x    frame=29715 fps=379 q=-0.0 size=N/A time=00:20:39.36 bitrate=N/A speed=15.8x    frame=29898 fps=379 q=-0.0 size=N/A time=00:20:46.99 bitrate=N/A speed=15.8x    frame=30076 fps=378 q=-0.0 size=N/A time=00:20:54.41 bitrate=N/A speed=15.8x    frame=30269 fps=378 q=-0.0 size=N/A time=00:21:02.46 bitrate=N/A speed=15.8x    frame=30456 fps=378 q=-0.0 size=N/A time=00:21:10.26 bitrate=N/A speed=15.8x    frame=30664 fps=378 q=-0.0 size=N/A time=00:21:18.94 bitrate=N/A speed=15.8x    frame=30873 fps=378 q=-0.0 size=N/A time=00:21:27.66 bitrate=N/A speed=15.8x    frame=31064 fps=378 q=-0.0 size=N/A time=00:21:35.62 bitrate=N/A speed=15.8x    frame=31272 fps=379 q=-0.0 size=N/A time=00:21:44.30 bitrate=N/A speed=15.8x    frame=31466 fps=379 q=-0.0 size=N/A time=00:21:52.39 bitrate=N/A speed=15.8x    frame=31665 fps=379 q=-0.0 size=N/A time=00:22:00.69 bitrate=N/A speed=15.8x    frame=31853 fps=379 q=-0.0 size=N/A time=00:22:08.53 bitrate=N/A speed=15.8x    frame=32040 fps=378 q=-0.0 size=N/A time=00:22:16.33 bitrate=N/A speed=15.8x    frame=32239 fps=379 q=-0.0 size=N/A time=00:22:24.63 bitrate=N/A speed=15.8x    frame=32447 fps=379 q=-0.0 size=N/A time=00:22:33.31 bitrate=N/A speed=15.8x    frame=32633 fps=379 q=-0.0 size=N/A time=00:22:41.06 bitrate=N/A speed=15.8x    frame=32786 fps=378 q=-0.0 size=N/A time=00:22:47.44 bitrate=N/A speed=15.8x    frame=32967 fps=378 q=-0.0 size=N/A time=00:22:54.99 bitrate=N/A speed=15.8x    frame=33156 fps=378 q=-0.0 size=N/A time=00:23:02.88 bitrate=N/A speed=15.8x    frame=33344 fps=378 q=-0.0 size=N/A time=00:23:10.72 bitrate=N/A speed=15.8x    frame=33504 fps=377 q=-0.0 size=N/A time=00:23:17.39 bitrate=N/A speed=15.7x    frame=33665 fps=377 q=-0.0 size=N/A time=00:23:24.11 bitrate=N/A speed=15.7x    frame=33806 fps=376 q=-0.0 size=N/A time=00:23:29.99 bitrate=N/A speed=15.7x    frame=33943 fps=376 q=-0.0 size=N/A time=00:23:35.70 bitrate=N/A speed=15.7x    frame=34119 fps=376 q=-0.0 size=N/A time=00:23:43.04 bitrate=N/A speed=15.7x    frame=34278 fps=375 q=-0.0 size=N/A time=00:23:49.67 bitrate=N/A speed=15.6x    frame=34412 fps=375 q=-0.0 size=N/A time=00:23:55.26 bitrate=N/A speed=15.6x    frame=34584 fps=374 q=-0.0 size=N/A time=00:24:02.44 bitrate=N/A speed=15.6x    [Parsed_psnr_16 @ 00000217ac9bb300] PSNR y:48.968861 u:50.332378 v:50.387095 average:49.384856 min:38.023642 max:inf
[out#0/null @ 000002179f4f3a00] video:14903KiB audio:271276KiB subtitle:0KiB other streams:0KiB global headers:0KiB muxing overhead: unknown
frame=34683 fps=374 q=-0.0 Lsize=N/A time=00:24:06.57 bitrate=N/A speed=15.6x    
